Coordinates
version=1
nRows=19
nColumns=36
inDegrees=yes

Units are S.I. units (second, meters, Newtons, ...)
If the header above contains a line with 'inDegrees', this indicates whether rotational values are in degrees (yes) or radians (no).

endheader
time	pelvis_tilt	pelvis_list	pelvis_rotation	pelvis_tx	pelvis_ty	pelvis_tz	hip_flexion_r	hip_adduction_r	hip_rotation_r	knee_angle_r	knee_angle_r_beta	ankle_angle_r	subtalar_angle_r	mtp_angle_r	hip_flexion_l	hip_adduction_l	hip_rotation_l	knee_angle_l	knee_angle_l_beta	ankle_angle_l	subtalar_angle_l	mtp_angle_l	lumbar_extension	lumbar_bending	lumbar_rotation	arm_flex_r	arm_add_r	arm_rot_r	elbow_flex_r	pro_sup_r	arm_flex_l	arm_add_l	arm_rot_l	elbow_flex_l	pro_sup_l
      4.38333330	     -2.81102665	     -0.29036972	      1.74516319	      0.26433006	      0.98641988	     -0.03807688	      4.59477700	     -4.21451636	     -1.61763169	     14.75889306	      0.25759128	      9.37985135	     -8.85812450	     -7.49999987	      2.91050349	     -5.74766839	      0.64610520	     10.42571121	      0.18196299	      5.70111022	     -4.66743904	     -7.49999987	     -5.89251387	     -0.20464847	     -2.15896750	     14.75391055	    -11.47489637	     19.46536835	     95.57970540	     86.10546462	     16.93766295	     -6.36589961	     29.41321202	    108.11235405	     74.15036511
      4.38750000	     -2.75270679	     -0.27724692	      1.80103048	      0.26528836	      0.98580926	     -0.03783458	      4.40404766	     -4.23123501	     -1.60214755	     14.56336121	      0.25417860	      9.22106390	     -8.93081392	     -7.49999987	      2.72580539	     -5.67236265	      0.69491568	     10.24317050	      0.17877705	      5.69472006	     -4.82200911	     -7.49999987	     -5.90932005	     -0.19699195	     -1.99735827	     15.05693018	    -11.53599075	     19.41271485	     95.77749519	     84.66036535	     17.14529887	     -6.40396757	     29.52808612	    108.24137473	     73.19558553
      4.39166670	     -2.70559898	     -0.28314872	      1.85402775	      0.26609731	      0.98839947	     -0.03636655	      4.17689903	     -4.18489407	     -1.71115802	     14.30074390	      0.24959507	      9.06027417	     -8.97594644	     -7.49999987	      2.47730201	     -5.67839950	      0.86500074	      9.89970744	      0.17278249	      5.57242397	     -4.69823070	     -7.49999987	     -5.90081382	     -0.22700740	     -1.76200107	     15.29320874	    -11.47633944	     19.47706388	     95.85731255	     83.16704075	     17.03252489	     -6.24491185	     29.47227757	    108.14735529	     72.23178888
      4.39583330	     -2.67121229	     -0.30404588	      1.91579108	      0.26508723	      0.98809161	     -0.03660347	      4.05551094	     -4.13950233	     -1.86695907	     14.11927917	      0.24642791	      9.08298105	     -8.86639083	     -7.49999987	      2.35499858	     -5.70969831	      0.98052715	      9.71588881	      0.16957425	      5.58745823	     -4.60500254	     -7.49999987	     -5.99499627	     -0.20669655	     -1.86143825	     15.88426519	    -11.29557937	     19.69548237	     95.76366104	     86.40269549	     16.96904969	     -6.26818548	     29.13053639	    108.40394505	     74.06407549
      4.40000000	     -2.58454873	     -0.27041414	      1.99184820	      0.26671446	      0.99155865	     -0.03502377	      3.68841878	     -4.10585994	     -1.98510330	     13.69264886	      0.23898181	      8.83498615	     -8.81035575	     -7.49999987	      2.07898102	     -5.70837314	      1.21566594	      9.42823809	      0.16455380	      5.35960435	     -4.41646462	     -7.49999987	     -6.06320315	     -0.32431666	     -1.69489265	     16.01901495	    -11.13389124	     19.69016193	     95.75667269	     85.71536912	     17.03027336	     -6.30192628	     29.19933366	    108.24346978	     73.53168713
      4.40416670	     -2.41475196	     -0.28873959	      2.05682411	      0.26733130	      0.99038436	     -0.03471667	      3.33069140	     -4.02808121	     -2.14227939	     13.44694919	      0.23469354	      8.82080828	     -8.57584379	     -7.49999987	      1.76001271	     -5.77735437	      1.20853538	      9.24617651	      0.16137622	      5.42981217	     -4.10906396	     -7.49999987	     -6.23833244	     -0.40620607	     -1.62207535	     16.19799744	    -11.08925163	     19.69504373	     95.83839295	     84.61903659	     17.10897182	     -6.32291124	     29.31903177	    108.26608449	     72.86505787
      4.40833330	     -2.24171648	     -0.28697416	      2.14182432	      0.26702315	      0.99032148	     -0.03428367	      3.02279348	     -3.96684954	     -2.20601682	     13.24934669	      0.23124472	      8.75873886	     -8.69034326	     -7.49999987	      1.48392833	     -5.82754586	      1.24903642	      9.08350142	      0.15853701	      5.40998407	     -3.94861420	     -7.49999987	     -6.46755312	     -0.48499545	     -1.55703125	     16.44942595	    -11.01020960	     19.66755510	     95.99714282	     84.19984208	     17.26125846	     -6.44193510	     29.44090265	    108.34438119	     72.53231066
      4.41250000	     -2.04662661	     -0.31149410	      2.23789415	      0.26725243	      0.98549858	     -0.03496843	      2.79831842	     -3.93028744	     -2.43045431	     13.33483571	      0.23273679	      9.01315591	     -8.54108498	     -7.49999987	      1.26042070	     -5.91101894	      1.22660680	      9.12410992	      0.15924576	      5.78311413	     -3.68392051	     -7.49999987	     -6.71093237	     -0.53718688	     -1.53736143	     16.77718884	    -11.00471308	     19.61319156	     96.35227387	     83.68500126	     17.52747598	     -6.62614332	     29.64621818	    108.69733823	     72.39564720
      4.41666670	     -1.86225818	     -0.31617653	      2.29231787	      0.26662974	      0.98700721	     -0.03515083	      2.64135872	     -3.92256609	     -2.57424150	     13.52004023	      0.23596922	      9.12000402	     -8.67515161	     -7.49999987	      1.06272490	     -5.93859651	      1.28339837	      9.09322497	      0.15870672	      5.93067129	     -3.73092953	     -7.49999987	     -6.86706979	     -0.58301836	     -1.49626150	     17.10227455	    -11.00372002	     19.68946548	     96.47086220	     82.20771585	     17.74839043	     -6.67599380	     29.89721999	    108.60860759	     71.48341606
      4.42083330	     -1.66850539	     -0.33264924	      2.31159439	      0.26657061	      0.98295645	     -0.03384945	      2.60957890	     -3.87307302	     -2.54784938	     13.90261518	      0.24264641	      9.39836562	     -9.05262665	     -7.49999987	      0.91400701	     -5.97512154	      1.39724711	      9.21114890	      0.16076488	      6.12284620	     -4.08553872	     -7.49999987	     -7.12365949	     -0.62096078	     -1.44303042	     17.40242240	    -10.94642873	     19.05629693	     96.93030888	     88.57716954	     17.98635501	     -6.76686626	     29.80416347	    108.77621904	     73.81225000
      4.42500000	     -1.45850223	     -0.32155445	      2.33669869	      0.26732305	      0.97830910	     -0.03476379	      2.57675197	     -3.87900389	     -2.45037041	     14.37704683	      0.25092680	      9.73529176	     -9.56157357	     -7.49999987	      0.78020228	     -5.99556767	      1.35767950	      9.49025512	      0.16563620	      6.56033662	     -4.10277142	     -7.49999987	     -7.30235284	     -0.65894964	     -1.40315967	     17.68644645	    -10.97670482	     18.99553359	     97.51208110	     87.18235111	     18.21730292	     -6.78549064	     29.86377412	    109.00778020	     73.13231309
      4.42916670	     -1.33098851	     -0.30496603	      2.38283967	      0.26691233	      0.97730801	     -0.03542651	      2.62505581	     -3.91138671	     -2.29731790	     14.81759544	      0.25861583	     10.12412194	     -9.90830045	     -7.49999987	      0.75126248	     -5.95002749	      1.65226131	      9.72971432	      0.16981555	      6.81301317	     -4.50224821	     -7.49999987	     -7.36254929	     -0.64662029	     -1.46358118	     18.05132679	    -10.94859620	     18.94807881	     97.80135863	     86.16655055	     18.60867809	     -6.85895530	     29.96598207	    109.14288759	     72.41100165
      4.43333330	     -1.21793114	     -0.30052437	      2.42453710	      0.26705380	      0.97662598	     -0.03492816	      2.70935881	     -3.90711224	     -2.21146142	     15.24367350	      0.26605229	     10.53176273	    -10.28464033	     -7.49999987	      0.78656986	     -5.95575486	      1.82435479	     10.07420748	      0.17582809	      7.16940457	     -4.65369246	     -7.49999987	     -7.49519512	     -0.73517160	     -1.49552965	     18.41563858	    -10.85952572	     19.02314990	     98.15088387	     85.06307355	     19.12767261	     -7.14550361	     30.41599943	    109.50782721	     71.65744333
      4.43750000	     -1.25824084	     -0.30121516	      2.53287992	      0.26676810	      0.97883784	     -0.03432148	      2.88101221	     -3.89753699	     -1.99861006	     15.51721985	      0.27082658	     10.73273291	    -10.47756704	     -7.49999987	      0.90556898	     -5.96520181	      1.88471469	     10.15310695	      0.17720515	      7.30238168	     -4.66569692	     -7.49999987	     -7.46300214	     -0.73125327	     -1.43277246	     18.64658359	    -10.82842303	     19.10428169	     98.26757940	     84.51858023	     19.48616437	     -7.40351472	     30.93164526	    109.63470605	     71.22829882
      4.44166670	     -1.24999737	     -0.28694038	      2.70878724	      0.26674421	      0.97779017	     -0.03455453	      2.94025712	     -3.89312812	     -1.97540572	     15.68942401	      0.27383211	     10.87208474	    -10.53486686	     -7.49999987	      1.04013426	     -5.98798881	      1.92705216	     10.34016501	      0.18046992	      7.45834155	     -4.73358409	     -7.49999987	     -7.51763107	     -0.74724949	     -1.39770489	     18.93656408	    -10.84707615	     19.24757505	     98.40661041	     83.59475316	     19.87523106	     -7.61048875	     31.56078430	    109.80007695	     70.60221613
      4.44583330	     -1.27173606	     -0.23382238	      2.88142727	      0.26831541	      0.97722362	     -0.03404058	      2.99828663	     -3.91260237	     -1.98696001	     15.85941913	      0.27679908	     10.97131769	    -10.59578856	     -7.49999987	      1.15849966	     -5.98385676	      2.01685489	     10.43605299	      0.18214349	      7.36209230	     -4.85771977	     -7.49999987	     -7.51705414	     -0.78836016	     -1.16229744	     18.95548695	    -10.73348866	     18.69617685	     98.52777011	     90.59237706	     20.12647681	     -7.66404209	     32.04836528	    109.55357016	     72.42872746
      4.45000000	     -1.26814196	     -0.21639533	      3.01709947	      0.26907239	      0.97727573	     -0.03296512	      2.94167621	     -3.87919193	     -2.00218695	     15.92272966	      0.27790406	     10.98811201	    -10.65966343	     -7.49999987	      1.23779913	     -6.05232630	      2.04396246	     10.53968216	      0.18395216	      7.33812840	     -4.82870458	     -7.49999987	     -7.49568692	     -0.81745430	     -1.04141017	     19.22125870	    -10.57722217	     19.03518751	     98.40670347	     89.47666137	     20.22345661	     -7.80585513	     32.47754903	    109.46690874	     71.73703717
      4.45416670	     -1.20387989	     -0.16372131	      3.12988851	      0.26921369	      0.97879216	     -0.03382996	      2.81262507	     -3.90416804	     -1.99236584	     15.92587850	      0.27795902	     11.06779074	    -10.68506775	     -7.49999987	      1.20961572	     -6.04972428	      1.89998672	     10.60433430	      0.18508055	      7.38865200	     -4.63428554	     -7.49999987	     -7.54309403	     -0.88958898	     -1.01765231	     19.40018319	    -10.48014969	     19.43865479	     98.26030141	     88.32756840	     20.36259963	     -7.95950855	     32.90031455	    109.33854288	     70.99765907
      4.45833330	     -1.11686941	     -0.14742987	      3.22650329	      0.26860119	      0.97555593	     -0.03246561	      2.73363465	     -3.88559510	     -2.03372730	     16.02776871	      0.27973734	     11.18756993	    -10.87987923	     -7.49999987	      1.17868145	     -6.07597948	      1.81492681	     10.69482609	      0.18665993	      7.59398713	     -4.43714180	     -7.49999987	     -7.64827031	     -0.93849812	     -1.06032123	     19.57096547	    -10.36127855	     19.70513386	     98.27066330	     86.49858065	     20.62475350	     -8.12283648	     33.27444353	    109.35505096	     70.05333885
